<?xml version="1.0" encoding="utf-8"?>
<!-- Generator: Adobe Illustrator 13.0.1, SVG Export Plug-In . SVG Version: 6.00 Build 14948)  -->
<!DOCTYPE svg PUBLIC "-//W3C//DTD SVG 1.1//EN" "http://www.w3.org/Graphics/SVG/1.1/DTD/svg11.dtd">
<svg version="1.1" id="图层_1" xmlns="http://www.w3.org/2000/svg" xmlns:xlink="http://www.w3.org/1999/xlink" x="0px" y="0px"
	 width="1024px" height="1024px" viewBox="0 0 1024 1024" enable-background="new 0 0 1024 1024" xml:space="preserve">
<g>
	<path fill="#3F3F3F" d="M373.153,802.467C205.243,754.122,77.269,614.88,76.585,442.708l0,0
		C78.123,226.17,276.857,63.842,509.49,63.5l0,0c232.517,0.342,431.197,162.67,432.676,379.209l0,0
		c-0.571,172.229-128.435,311.467-296.509,359.812l0,0L509.373,958.768L373.153,802.467L373.153,802.467L373.153,802.467z
		 M190.344,442.708c-0.571,115.409,91.629,219.779,228.137,254.193l0,0l17.292,4.32l73.717,84.467l61.766-70.93l11.834-13.537
		l17.292-4.32c136.45-34.414,228.709-138.784,228.025-254.192l0,0c-0.229-139.521-136.338-265.108-318.917-265.45l0,0
		C326.794,177.601,190.686,303.188,190.344,442.708L190.344,442.708L190.344,442.708z M190.344,442.708"/>
</g>
</svg>
