<?xml version="1.0" encoding="utf-8"?>
<!-- Generator: Adobe Illustrator 13.0.1, SVG Export Plug-In . SVG Version: 6.00 Build 14948)  -->
<!DOCTYPE svg PUBLIC "-//W3C//DTD SVG 1.1//EN" "http://www.w3.org/Graphics/SVG/1.1/DTD/svg11.dtd">
<svg version="1.1" id="图层_1" xmlns="http://www.w3.org/2000/svg" xmlns:xlink="http://www.w3.org/1999/xlink" x="0px" y="0px"
	 width="1024px" height="1024px" viewBox="0 0 1024 1024" enable-background="new 0 0 1024 1024" xml:space="preserve">
<g>
	<path fill="#3F3F3F" d="M511.697,175.519c51.304,0,94.04,36.016,104.736,84.072H406.955
		C417.655,211.535,460.392,175.519,511.697,175.519 M511.697,63.5c-103.563,0-191.614,70.628-214.073,171.785l-30.302,80.32h488.689
		l-30.247-80.265C703.305,134.184,615.315,63.5,511.697,63.5L511.697,63.5L511.697,63.5z M903.546,370.662
		c0-77.184-62.787-140.026-139.97-140.026H259.48c-77.185,0-140.026,62.843-140.026,140.026c0,67.27,47.775,123.613,111.126,136.944
		v339.869c0,61.838,50.186,112.024,112.02,112.024h336.062c61.839,0,112.023-50.187,112.023-112.024V508
		C854.873,495.283,903.546,438.602,903.546,370.662L903.546,370.662z M678.605,847.536H342.545V511.47h336.061V847.536
		L678.605,847.536z M763.521,398.665H259.425c-15.461,0-28.006-12.546-28.006-28.002c0-15.461,12.545-28.008,28.006-28.008h504.096
		c15.4,0,27.946,12.547,27.946,28.008C791.467,386.118,778.976,398.665,763.521,398.665L763.521,398.665z M399.673,567.649h55.787
		V790.74h-55.787V567.649L399.673,567.649z M513.991,567.649h55.787V790.74h-55.787V567.649L513.991,567.649z M513.991,567.649"/>
</g>
</svg>
