<?xml version="1.0" encoding="utf-8"?>
<!-- Generator: Adobe Illustrator 13.0.1, SVG Export Plug-In . SVG Version: 6.00 Build 14948)  -->
<!DOCTYPE svg PUBLIC "-//W3C//DTD SVG 1.1//EN" "http://www.w3.org/Graphics/SVG/1.1/DTD/svg11.dtd">
<svg version="1.1" id="图层_1" xmlns="http://www.w3.org/2000/svg" xmlns:xlink="http://www.w3.org/1999/xlink" x="0px" y="0px"
	 width="1024px" height="1024px" viewBox="0 0 1024 1024" enable-background="new 0 0 1024 1024" xml:space="preserve">
<g>
	<path fill="#3F3F3F" d="M935.125,86.481c-50.179-50.178-172.763-15.455-316.124,77.557
		c-34.327-10.807-70.895-16.688-108.806-16.688c-200.762,0-364.118,163.351-364.118,364.107c0,37.911,5.825,74.535,16.632,108.861
		C69.692,763.62,34.97,886.203,85.148,936.434c50.231,50.287,172.873,15.623,316.292-77.448
		c34.383,10.641,70.895,16.465,108.754,16.465c200.703,0,364.059-163.294,364.059-363.992c0-37.855-5.824-74.312-16.58-108.637
		C950.748,259.348,985.356,136.711,935.125,86.481L935.125,86.481z M159.462,862.123c-26.88-26.822-11.592-90.551,34.158-171.523
		c32.647,57.287,80.248,104.995,137.652,137.591C250.068,874.164,186.399,889.002,159.462,862.123L159.462,862.123z
		 M230.131,511.458c0-154.39,125.611-280.05,280.063-280.05c120.737,0,223.609,76.999,262.808,184.402
		c-43.737,61.208-99.85,127.458-165.427,192.976c-65.629,65.632-131.822,121.738-193.09,165.474
		C307.133,735.117,230.131,632.192,230.131,511.458L230.131,511.458z M510.195,791.45c-4.648,0-9.187-0.445-13.72-0.67
		c51.349-40.149,103.765-86.07,155.344-137.701c51.575-51.63,97.551-103.992,137.705-155.398c0.22,4.589,0.67,9.128,0.67,13.777
		C790.194,665.905,664.641,791.45,510.195,791.45L510.195,791.45z M689.34,194.897c80.918-45.697,144.648-61.042,171.529-34.162
		c26.937,26.879,12.041,90.608-33.938,171.806C794.34,275.143,746.739,227.486,689.34,194.897L689.34,194.897z M689.34,194.897"/>
</g>
</svg>
