<?xml version="1.0" encoding="utf-8"?>
<!-- Generator: Adobe Illustrator 13.0.1, SVG Export Plug-In . SVG Version: 6.00 Build 14948)  -->
<!DOCTYPE svg PUBLIC "-//W3C//DTD SVG 1.1//EN" "http://www.w3.org/Graphics/SVG/1.1/DTD/svg11.dtd">
<svg version="1.1" id="图层_1" xmlns="http://www.w3.org/2000/svg" xmlns:xlink="http://www.w3.org/1999/xlink" x="0px" y="0px"
	 width="1024px" height="1024px" viewBox="0 0 1024 1024" enable-background="new 0 0 1024 1024" xml:space="preserve">
<g>
	<path fill="#3F3F3F" d="M889.332,114.138H130.486c-37.752,0-68.319,30.568-68.319,68.321V835.18
		c0,37.692,30.567,68.32,68.319,68.32l758.846-0.001c37.692,0,68.315-30.571,68.315-68.319V182.458
		C957.647,144.706,927.024,114.138,889.332,114.138L889.332,114.138z M851.917,797.71H167.952V377.203l289.819,246.855
		c12.731,10.656,28.325,16.04,43.919,16.04c15.594,0,31.243-5.328,43.919-16.04l306.308-246.855V797.71L851.917,797.71z
		 M851.917,243.426L501.635,527.131L167.897,243.426v-25.184h684.02V243.426L851.917,243.426z M851.917,243.426"/>
</g>
</svg>
