<?xml version="1.0" encoding="utf-8"?>
<!-- Generator: Adobe Illustrator 13.0.1, SVG Export Plug-In . SVG Version: 6.00 Build 14948)  -->
<!DOCTYPE svg PUBLIC "-//W3C//DTD SVG 1.1//EN" "http://www.w3.org/Graphics/SVG/1.1/DTD/svg11.dtd">
<svg version="1.1" id="图层_1" xmlns="http://www.w3.org/2000/svg" xmlns:xlink="http://www.w3.org/1999/xlink" x="0px" y="0px"
	 width="1024px" height="1024px" viewBox="0 0 1024 1024" enable-background="new 0 0 1024 1024" xml:space="preserve">
<g>
	<path fill="#3F3F3F" d="M161.723,63.5h696.891c54.952,0,99.553,44.6,99.553,99.557v696.892c0,54.951-44.601,99.551-99.553,99.551
		H161.723c-54.957,0-99.557-44.6-99.557-99.551V163.057C62.167,108.1,106.766,63.5,161.723,63.5L161.723,63.5z M759.506,202.133
		l-125.394-73.674c-46.143-27.126-105.229-11.049-131.861,35.939L260.931,589.702l16.923,320.02l275.72-148.186l241.321-425.252
		C821.529,289.292,805.699,229.259,759.506,202.133L759.506,202.133z M494.04,669.942l-121.209,74.769l-4.23-148.438
		l120.658-212.602l125.439,73.623L494.04,669.942L494.04,669.942z M687.125,329.714l-24.139,42.511L537.547,298.55l24.139-42.511
		c13.343-23.494,42.861-31.556,65.959-17.965l41.811,24.537C692.552,276.15,700.469,306.219,687.125,329.714L687.125,329.714z
		 M687.125,329.714"/>
</g>
</svg>
