<?xml version="1.0" encoding="utf-8"?>
<!-- Generator: Adobe Illustrator 13.0.1, SVG Export Plug-In . SVG Version: 6.00 Build 14948)  -->
<!DOCTYPE svg PUBLIC "-//W3C//DTD SVG 1.1//EN" "http://www.w3.org/Graphics/SVG/1.1/DTD/svg11.dtd">
<svg version="1.1" id="图层_1" xmlns="http://www.w3.org/2000/svg" xmlns:xlink="http://www.w3.org/1999/xlink" x="0px" y="0px"
	 width="1024px" height="1024px" viewBox="0 0 1024 1024" enable-background="new 0 0 1024 1024" xml:space="preserve">
<g>
	<path fill="#3F3F3F" d="M823.077,63.5H199.982c-33.945,0-61.513,27.622-61.513,61.513v788.324c0,16.461,8.717,31.67,22.953,39.928
		c14.241,8.258,31.78,8.312,46.021,0.17l299.983-170.012l308.19,170.012c7.008,4.043,14.922,6.036,22.781,6.036
		c8.03,0,16.008-2.047,23.127-6.206c14.237-8.317,23.007-23.467,23.007-39.928V125.013C884.59,91.122,856.968,63.5,823.077,63.5
		L823.077,63.5z M797.789,833.828L530.268,684.717c-7.063-4.042-15.035-6.037-22.841-6.037c-7.913,0-15.832,1.995-22.836,6.037
		L226.636,833.828V151.667h571.212v682.161H797.789z M708.367,414.578H314.69v88.108h393.677V414.578L708.367,414.578z
		 M708.367,239.776H314.69v85.322h393.677V239.776L708.367,239.776z M708.367,239.776"/>
</g>
</svg>
