<?xml version="1.0" encoding="utf-8"?>
<!-- Generator: Adobe Illustrator 13.0.1, SVG Export Plug-In . SVG Version: 6.00 Build 14948)  -->
<!DOCTYPE svg PUBLIC "-//W3C//DTD SVG 1.1//EN" "http://www.w3.org/Graphics/SVG/1.1/DTD/svg11.dtd">
<svg version="1.1" id="图层_1" xmlns="http://www.w3.org/2000/svg" xmlns:xlink="http://www.w3.org/1999/xlink" x="0px" y="0px"
	 width="1024px" height="1024px" viewBox="0 0 1024 1024" enable-background="new 0 0 1024 1024" xml:space="preserve">
<path fill="#373737" d="M846.164,63.5H174.169c-61.827,0-112.003,50.177-112.003,112.002v671.997
	c0,61.88,50.122,112.002,112.003,112.002h671.995c61.881,0,112.002-50.122,112.002-112.002V175.502
	C958.166,113.677,908.045,63.5,846.164,63.5L846.164,63.5z M788.635,670.595c-5.598,31.583-23.295,65.463-53.089,101.418
	c-9.406,11.478-17.302,19.377-23.687,23.576c-6.386,4.196-13.438,6.271-21.394,6.271l-83.159-10.304H339.686
	c-17.582,0-29.568-2.075-36.063-6.106c-9.406-5.879-13.106-14.67-11.029-26.43c1.228-7.169,3.862-12.433,7.949-15.905
	c4.087-3.472,13.274-8.347,27.718-14.784c15.737-6.885,26.772-16.574,33.042-29.119c5.151-10.472,12.211-40.879,21.111-91.446
	c4.146-23.52,9.411-57.289,15.959-101.473c6.216-42.335,11.09-74.258,14.562-95.705c3.583-20.383,4.479-34.382,2.576-41.945
	c-1.793-7.445-7.504-12.878-17.191-16.182c-15.791-5.878-25.703-10.585-29.681-14.171c-6.999-6.379-9.856-13.66-8.4-21.839
	c3.304-18.589,21.225-32.76,53.871-42.502c27.777-8.401,63.728-12.656,107.855-12.656c49.507,0,86.126,2.576,109.648,7.672
	c30.463,6.89,43.847,20.72,40.206,41.329c-1.452,8.396-4.701,14.727-9.63,18.759c-4.982,4.085-16.128,9.574-33.712,16.463
	c-10.416,4.423-17.865,11.759-22.289,22.231c-4.424,10.53-9.688,33.319-15.904,68.546l-30.968,175.725
	c-6.999,39.538-8.063,65.019-3.189,76.498c5.988,13.554,22.566,20.327,49.671,20.327c29.119,0,53.144-6.383,72.237-19.151
	c19.1-12.825,34.331-32.701,45.753-59.696c6.722-16.629,16.915-24.921,30.407-24.921c13.498,0,23.464,6.106,29.849,18.203
	C790.541,635.373,792.052,651.164,788.635,670.595L788.635,670.595z"/>
</svg>
