<?xml version="1.0" encoding="utf-8"?>
<!-- Generator: Adobe Illustrator 13.0.1, SVG Export Plug-In . SVG Version: 6.00 Build 14948)  -->
<!DOCTYPE svg PUBLIC "-//W3C//DTD SVG 1.1//EN" "http://www.w3.org/Graphics/SVG/1.1/DTD/svg11.dtd">
<svg version="1.1" id="图层_1" xmlns="http://www.w3.org/2000/svg" xmlns:xlink="http://www.w3.org/1999/xlink" x="0px" y="0px"
	 width="1024px" height="1024px" viewBox="0 0 1024 1024" enable-background="new 0 0 1024 1024" xml:space="preserve">
<path fill="#3F3F3F" d="M941.779,864.029L765.784,687.872c114.505-153.156,103.753-370.541-35.508-509.701
	c-152.907-152.895-400.617-152.895-553.46,0C23.95,330.957,23.95,578.6,176.816,731.496
	c139.282,139.247,356.621,150.131,509.835,35.503L862.822,943.11c21.813,21.853,57.101,21.853,78.913,0
	C963.635,921.124,963.635,885.839,941.779,864.029L941.779,864.029z M651.19,652.416c-109.196,109.097-286.09,109.097-395.221,0
	c-109.151-109.186-109.151-286.043,0-395.186c109.131-109.142,286.111-109.142,395.221,0
	C760.342,366.373,760.342,543.23,651.19,652.416L651.19,652.416z"/>
</svg>
