<?xml version="1.0" encoding="utf-8"?>
<!-- Generator: Adobe Illustrator 13.0.1, SVG Export Plug-In . SVG Version: 6.00 Build 14948)  -->
<!DOCTYPE svg PUBLIC "-//W3C//DTD SVG 1.1//EN" "http://www.w3.org/Graphics/SVG/1.1/DTD/svg11.dtd">
<svg version="1.1" id="图层_1" xmlns="http://www.w3.org/2000/svg" xmlns:xlink="http://www.w3.org/1999/xlink" x="0px" y="0px"
	 width="1024px" height="1024px" viewBox="0 0 1024 1024" enable-background="new 0 0 1024 1024" xml:space="preserve">
<g>
	<path fill="#3F3F3F" d="M858.611,63.5H161.722c-54.955,0-99.556,44.6-99.556,99.556v696.89c0,54.955,44.601,99.556,99.556,99.556
		h696.889c54.955,0,99.555-44.601,99.555-99.556v-696.89C958.166,108.1,913.566,63.5,858.611,63.5L858.611,63.5z M694.741,647.244
		c-19.513,19.512-51.071,19.512-70.535,0l-63.565-63.267V760.39c0,27.478-22.353,49.777-49.777,49.777
		c-27.477,0-49.777-22.3-49.777-49.777V580.194l-65.209,66.65c-19.511,19.464-51.022,19.464-70.535,0
		c-19.512-19.464-19.512-50.922,0-70.386l147.589-150.132c9.31-9.355,22.001-14.585,35.244-14.585c0.645,0,1.192,0.352,1.79,0.352
		c0.301,0,0.547-0.149,0.796-0.149c16.724,0,30.814,8.812,39.823,21.502L694.64,576.81
		C714.156,596.322,714.156,627.78,694.741,647.244L694.741,647.244z M659.5,312.389H360.833c-27.526,0-49.778-22.3-49.778-49.777
		c0-27.478,22.252-49.778,49.778-49.778H659.5c27.478,0,49.777,22.3,49.777,49.778C709.277,290.088,686.978,312.389,659.5,312.389
		L659.5,312.389z M659.5,312.389"/>
</g>
</svg>
