<?xml version="1.0" encoding="utf-8"?>
<!-- Generator: Adobe Illustrator 13.0.1, SVG Export Plug-In . SVG Version: 6.00 Build 14948)  -->
<!DOCTYPE svg PUBLIC "-//W3C//DTD SVG 1.1//EN" "http://www.w3.org/Graphics/SVG/1.1/DTD/svg11.dtd">
<svg version="1.1" id="图层_1" xmlns="http://www.w3.org/2000/svg" xmlns:xlink="http://www.w3.org/1999/xlink" x="0px" y="0px"
	 width="1024px" height="1024px" viewBox="0 0 1024 1024" enable-background="new 0 0 1024 1024" xml:space="preserve">
<g>
	<path fill="#3F3F3F" d="M715.907,563.98c32.197-52.299,65.509-117.138,65.509-187.663c0-172.796-128.554-312.818-269.964-312.818
		c-141.315,0-264.319,140.022-264.319,312.818c0,70.525,27.716,135.364,59.913,187.663C174.77,626.757,84.903,734.269,84.903,874.2
		v28.433c0,31.39,25.434,56.867,56.866,56.867h739.413c31.433,0,56.914-25.478,56.914-56.867V874.2
		C938.05,734.269,848.182,626.757,715.907,563.98L715.907,563.98z M511.452,148.799c92.469,0,184.621,104.202,184.621,227.519
		c0,123.315-92.152,227.513-184.621,227.513c-92.464,0-179.021-104.198-179.021-227.513
		C332.432,253.001,418.988,148.799,511.452,148.799L511.452,148.799z M170.202,870.034c0-112.883,79.349-192.23,193.979-238.126
		c41.687,35.957,92.423,57.227,147.319,57.227s105.627-21.315,147.318-57.227c114.63,45.896,193.974,125.243,193.974,238.126
		H170.202L170.202,870.034z M170.202,870.034"/>
</g>
</svg>
