<?xml version="1.0" encoding="utf-8"?>
<!-- Generator: Adobe Illustrator 13.0.1, SVG Export Plug-In . SVG Version: 6.00 Build 14948)  -->
<!DOCTYPE svg PUBLIC "-//W3C//DTD SVG 1.1//EN" "http://www.w3.org/Graphics/SVG/1.1/DTD/svg11.dtd">
<svg version="1.1" id="图层_1" xmlns="http://www.w3.org/2000/svg" xmlns:xlink="http://www.w3.org/1999/xlink" x="0px" y="0px"
	 width="1024px" height="1024px" viewBox="0 0 1024 1024" enable-background="new 0 0 1024 1024" xml:space="preserve">
<g>
	<path fill="#3F3F3F" d="M768.856,942.574c-8.425,0-15.242-0.718-20.229-1.441l0,0H62.167V464.075v-55.423h231.905
		c1.166,0.22,9.31-1.333,21.228-10.698l0,0c11.583-9.145,25.332-24.501,37.135-42.679l0,0
		c24.557-35.476,40.518-84.529,39.467-103.429l0,0c0.442-33.42,1.442-69.282,19.51-105.866l0,0
		c16.793-38.021,64.46-67.896,112.958-65.622l0,0c22.782,0.167,46.393,4.376,72.444,12.136l0,0
		c37.302,10.476,66.512,38.411,80.536,68.287l0,0c14.52,30.042,18.125,60.913,18.344,90.346l0,0
		c-0.333,40.019-7.535,79.704-15.742,112.24l0,0h156.525c35.976-0.442,71.503,11.308,94.063,36.97l0,0
		c22.335,25.441,26.993,54.87,26.993,76.878l0,0c-0.333,30.705-8.04,54.595-12.308,66.123l0,0l-47.278,301.576l-2.16,5.821
		c-24.666,68.396-87.463,92.008-121.554,92.008l0,0C772.405,942.799,770.574,942.742,768.856,942.574L768.856,942.574
		L768.856,942.574z M768.856,831.721c7.759-2.604,11.199,3.492,21.841-17.128l0,0l47.111-301.134l2.717-6.259
		c-0.224-0.114,1.275-2.717,3.102-9.259l0,0c1.832-6.374,3.439-15.133,3.326-20.784l0,0c0.057-0.833,0.057-1.551,0.057-2.16l0,0
		c-2.217-0.39-5.6-0.832-10.419-0.832l0,0H522.928l30.1-75.88c-0.224-0.114,7.759-19.623,15.96-49.166l0,0
		c8.207-29.32,15.966-67.62,15.852-98.102l0,0c0.114-19.067-3.211-34.09-6.983-41.408l0,0c-4.319-7.425-4.767-7.978-12.745-11.026
		l0,0c-18.791-5.49-32.592-7.317-40.794-7.317l0,0c-18.235,2.383-9.091,0.11-14.134,4.985l0,0
		c-3.882,6.208-7.874,28.325-7.426,55.595l0,0c-0.999,55.536-24.281,112.681-57.811,164.674l0,0
		c-34.699,49.387-77.986,99.546-150.874,102.98l0,0H173.021v310.777h587.634l5.042,1.223v-0.114
		C766.088,831.611,767.248,831.721,768.856,831.721L768.856,831.721L768.856,831.721z M260.318,484.64h124.709v397.241H260.318
		V484.64L260.318,484.64z M260.318,484.64"/>
</g>
</svg>
