<?xml version="1.0" encoding="utf-8"?>
<!-- Generator: Adobe Illustrator 13.0.1, SVG Export Plug-In . SVG Version: 6.00 Build 14948)  -->
<!DOCTYPE svg PUBLIC "-//W3C//DTD SVG 1.1//EN" "http://www.w3.org/Graphics/SVG/1.1/DTD/svg11.dtd">
<svg version="1.1" id="图层_1" xmlns="http://www.w3.org/2000/svg" xmlns:xlink="http://www.w3.org/1999/xlink" x="0px" y="0px"
	 width="1024px" height="1024px" viewBox="0 0 1024 1024" enable-background="new 0 0 1024 1024" xml:space="preserve">
<g>
	<path fill="#3F3F3F" d="M411.52,877.065c-17.909-36.589-19.069-72.343-19.518-105.604l0,0
		c3.218-30.21-39.299-120.572-76.777-146.236l0,0c-11.751-9.372-19.955-11.031-21.064-10.699l0,0H117.6v-55.438h55.438H117.6v55.438
		H62.167V81.907h686.727c4.988-0.776,11.751-1.443,20.069-1.443l0,0c32.262-2.717,101.168,19.403,127.058,91.911l0,0l2.16,5.598
		l47.396,302.343c4.326,11.756,11.808,35.421,12.25,65.636l0,0c0,22.008-4.654,51.332-27.107,76.779l0,0
		c-22.448,25.665-57.984,37.525-94.125,37.029l0,0H680.045c8.147,32.538,15.353,72.229,15.686,112.143l0,0
		c-0.109,29.492-3.712,60.312-18.236,90.304l0,0c-14.025,29.883-43.074,57.708-80.49,68.407l0,0
		c-26.279,7.928-50.061,11.922-72.566,12.031l0,0c-1.775,0.053-3.493,0.109-5.211,0.109l0,0
		C472.498,942.755,427.706,913.597,411.52,877.065L411.52,877.065L411.52,877.065z M294.161,503.598
		c72.899,3.326,116.25,53.497,150.782,103l0,0c33.541,51.887,56.88,109.04,57.931,164.807l0,0
		c-0.442,26.997,3.547,49.169,7.43,55.322l0,0c5.044,4.937-4.103,2.609,14.134,5.046l0,0c8.538,0,22.229-1.827,40.58-7.314l0,0
		c8.091-3.108,8.533-3.771,12.859-11.199l0,0c3.826-7.261,7.205-22.452,6.986-41.356l0,0c0.219-30.376-7.596-68.683-15.909-98.116
		l0,0c-8.096-29.439-15.801-49.063-15.967-49.063l0,0l-29.935-75.836h313.541c5.264,0,8.371-0.274,10.309-0.552l0,0
		c0.057-0.724,0.109-1.498,0.109-2.385l0,0c0.114-5.709-1.438-14.357-3.322-20.844l0,0c-1.832-6.543-3.107-9.147-3.107-9.147l0,0
		l-2.713-6.376L790.803,208.74c-10.699-21.063-13.858-14.8-21.896-17.352l0,0c-1.166,0-2.108,0.058-2.661,0.058l0,0l-5.211,1.328
		H173.039v310.824H294.161L294.161,503.598L294.161,503.598z M260.4,189.004h124.73V586.31H260.4V189.004L260.4,189.004z
		 M260.4,189.004"/>
</g>
</svg>
